<mxfile host="app.diagrams.net" modified="2024-05-17T18:51:23.472Z" agent="Mozilla/5.0 (X11; Ubuntu; Linux x86_64; rv:123.0) Gecko/20100101 Firefox/123.0" version="24.4.4" etag="F8u3_oSbNAuXFfZYx0da" type="github">
  <diagram name="Page-1" id="HBpvBTQzdYc7FXg_aVbE">
    <mxGraphModel>
      <root>
        <mxCell id="0" />
        <mxCell id="1" parent="0" />
      </root>
    </mxGraphModel>
  </diagram>
</mxfile>
